<?xml version="1.0" encoding="UTF-8" standalone="no"?>
<!-- Created with Inkscape (http://www.inkscape.org/) -->

<svg
   width="210mm"
   height="297mm"
   viewBox="0 0 210 297"
   version="1.1"
   id="svg5"
   sodipodi:docname="drawing-3.svg"
   inkscape:version="1.2.2 (732a01da63, 2022-12-09)"
   xmlns:inkscape="http://www.inkscape.org/namespaces/inkscape"
   xmlns:sodipodi="http://sodipodi.sourceforge.net/DTD/sodipodi-0.dtd"
   xmlns="http://www.w3.org/2000/svg"
   xmlns:svg="http://www.w3.org/2000/svg">
  <sodipodi:namedview
     id="namedview7"
     pagecolor="#ffffff"
     bordercolor="#000000"
     borderopacity="0.25"
     inkscape:showpageshadow="2"
     inkscape:pageopacity="0.0"
     inkscape:pagecheckerboard="0"
     inkscape:deskcolor="#d1d1d1"
     inkscape:document-units="mm"
     showgrid="false"
     inkscape:zoom="0.5946522"
     inkscape:cx="369.96416"
     inkscape:cy="311.94705"
     inkscape:window-width="915"
     inkscape:window-height="878"
     inkscape:window-x="134"
     inkscape:window-y="97"
     inkscape:window-maximized="0"
     inkscape:current-layer="layer1" />
  <defs
     id="defs2" />
  <g
     inkscape:label="Layer 1"
     inkscape:groupmode="layer"
     id="layer1">
    <text
       xml:space="preserve"
       style="font-weight:bold;font-size:8.1139px;font-family:Calibri;-inkscape-font-specification:'Calibri Bold';text-align:center;text-anchor:middle;fill:#800000;stroke-width:0.264583"
       x="88.097717"
       y="10.233569"
       id="text113"><tspan
         sodipodi:role="line"
         id="tspan111"
         style="stroke-width:0.264583"
         x="88.097717"
         y="10.233569">free</tspan></text>
    <text
       xml:space="preserve"
       style="font-weight:bold;font-size:8.1139px;font-family:Calibri;-inkscape-font-specification:'Calibri Bold';text-align:center;text-anchor:middle;fill:#800000;stroke-width:0.264583"
       x="88.097717"
       y="23.136776"
       id="text117"><tspan
         sodipodi:role="line"
         id="tspan115"
         style="stroke-width:0.264583"
         x="88.097717"
         y="23.136776">form</tspan></text>
    <text
       xml:space="preserve"
       style="font-weight:bold;font-size:8.1139px;font-family:Calibri;-inkscape-font-specification:'Calibri Bold';text-align:center;text-anchor:middle;fill:#800000;stroke-width:0.264583"
       x="83.648338"
       y="38.709599"
       id="text121"><tspan
         sodipodi:role="line"
         id="tspan119"
         style="stroke-width:0.264583"
         x="83.648338"
         y="38.709599">drawing</tspan></text>
    <text
       xml:space="preserve"
       style="font-weight:bold;font-size:8.1139px;font-family:Calibri;-inkscape-font-specification:'Calibri Bold';text-align:center;text-anchor:middle;fill:#800000;stroke-width:0.264583"
       x="85.428085"
       y="48.498234"
       id="text175"><tspan
         sodipodi:role="line"
         id="tspan173"
         style="stroke-width:0.264583"
         x="85.428085"
         y="48.498234">expression</tspan></text>
    <text
       xml:space="preserve"
       style="font-weight:bold;font-size:8.1139px;font-family:Calibri;-inkscape-font-specification:'Calibri Bold';text-align:center;text-anchor:middle;fill:#800000;stroke-width:0.264583"
       x="81.868584"
       y="63.181194"
       id="text179"><tspan
         sodipodi:role="line"
         id="tspan177"
         style="stroke-width:0.264583"
         x="81.868584"
         y="63.181194">brainstorm</tspan></text>
    <text
       xml:space="preserve"
       style="font-weight:bold;font-size:8.1139px;font-family:Calibri;-inkscape-font-specification:'Calibri Bold';text-align:center;text-anchor:middle;fill:#800000;stroke-width:0.264583"
       x="103.2256"
       y="80.978699"
       id="text183"><tspan
         sodipodi:role="line"
         id="tspan181"
         style="stroke-width:0.264583"
         x="103.2256"
         y="80.978699">mindmap</tspan></text>
    <text
       xml:space="preserve"
       style="font-weight:bold;font-size:8.1139px;font-family:Calibri;-inkscape-font-specification:'Calibri Bold';text-align:center;text-anchor:middle;fill:#800000;stroke-width:0.264583"
       x="98.331284"
       y="91.657211"
       id="text187"><tspan
         sodipodi:role="line"
         id="tspan185"
         style="stroke-width:0.264583"
         x="98.331284"
         y="91.657211">uml</tspan></text>
    <text
       xml:space="preserve"
       style="font-weight:bold;font-size:8.1139px;font-family:Calibri;-inkscape-font-specification:'Calibri Bold';text-align:center;text-anchor:middle;fill:#800000;stroke-width:0.264583"
       x="149.49915"
       y="101.0009"
       id="text191"><tspan
         sodipodi:role="line"
         id="tspan189"
         style="stroke-width:0.264583"
         x="149.49915"
         y="101.0009">class</tspan></text>
    <text
       xml:space="preserve"
       style="font-weight:bold;font-size:8.1139px;font-family:Calibri;-inkscape-font-specification:'Calibri Bold';text-align:center;text-anchor:middle;fill:#800000;stroke-width:0.264583"
       x="179.75493"
       y="98.776215"
       id="text195"><tspan
         sodipodi:role="line"
         id="tspan193"
         style="stroke-width:0.264583"
         x="179.75493"
         y="98.776215">object</tspan></text>
    <text
       xml:space="preserve"
       style="font-weight:bold;font-size:8.1139px;font-family:Calibri;-inkscape-font-specification:'Calibri Bold';text-align:center;text-anchor:middle;fill:#800000;stroke-width:0.264583"
       x="142.38014"
       y="120.13324"
       id="text199"><tspan
         sodipodi:role="line"
         id="tspan197"
         style="stroke-width:0.264583"
         x="142.38014"
         y="120.13324">set</tspan></text>
    <text
       xml:space="preserve"
       style="font-weight:bold;font-size:8.1139px;font-family:Calibri;-inkscape-font-specification:'Calibri Bold';text-align:center;text-anchor:middle;fill:#800000;stroke-width:0.264583"
       x="173.5258"
       y="120.57819"
       id="text203"><tspan
         sodipodi:role="line"
         id="tspan201"
         style="stroke-width:0.264583"
         x="173.5258"
         y="120.57819">member</tspan></text>
    <path
       style="fill:#800000;stroke-width:0.264583"
       d="m 143.27002,105.4503 c -0.96452,0.0575 -0.17524,2.57516 -0.44494,3.11456 -0.1876,0.37521 -0.47039,0.88988 -0.88988,0.88988 -0.14831,0 0,-0.59325 0,-0.44494 0,0.54273 0.25695,2.15573 0,2.66963 -0.34995,0.69991 -0.44493,0.50445 -0.44493,1.33481"
       id="path268" />
    <path
       style="fill:#800000;stroke-width:0.264583"
       d="m 177.97518,102.33573 c -1.46694,0.52588 -0.2058,1.50725 -0.44494,2.22469 -0.20975,0.62924 -0.72901,1.13628 -0.88988,1.77975 -0.2269,0.90763 -0.35224,3.91175 -0.88987,4.44938 -0.10488,0.10487 -0.34007,-0.10487 -0.44494,0 -0.38837,0.38837 0,3.00918 0,3.5595"
       id="path270" />
    <path
       style="fill:#800000;stroke-width:0.264583"
       d="m 159.73272,96.551537 c 3.05763,-0.35867 5.89802,0.44494 8.89876,0.44494"
       id="path272" />
    <path
       style="fill:#800000;stroke-width:0.264583"
       d="m 151.2789,117.90856 c 2.15747,0.65533 4.43918,0.44494 6.67407,0.44494"
       id="path274" />
    <path
       style="fill:#800000;stroke-width:0.264583"
       d="m 105.45029,93.436967 36.03998,5.33926"
       id="path440" />
    <path
       style="fill:#800000;stroke-width:0.264583"
       id="path491"
       d="m 110.05237,94.208637 c 3.20078,0.0868 6.39519,0.25351 9.58077,0.57862 2.77661,0.40067 5.57027,0.69155 8.28859,1.40358 1.5531,0.42018 3.09748,0.87398 4.58303,1.49482 1.46772,0.6695 2.96926,1.00877 4.56729,1.17098 0,0 -3.13179,-2.33156 -3.13179,-2.33156 v 0 c -1.57904,-0.20918 -3.06836,-0.61913 -4.5257,-1.27147 -1.49024,-0.58387 -3.02914,-1.02637 -4.57893,-1.42296 -2.72733,-0.65387 -5.51535,-0.95702 -8.29108,-1.33466 -3.21078,-0.31322 -6.43072,-0.42893 -9.65028,-0.61412 0,0 3.1581,2.32677 3.1581,2.32677 z" />
    <path
       style="fill:#800000;stroke-width:0.264583"
       id="path493"
       d="m 74.60191,6.9476337 c -0.850017,1.304991 -1.633146,2.649786 -2.197458,4.1031933 -0.321114,1.314929 -1.06136,2.298298 -0.343093,3.577497 0.729218,0.769001 1.585939,1.407398 2.384023,2.10412 0,0 3.649972,1.488721 3.649972,1.488721 v 0 c -0.769316,-0.708578 -1.587286,-1.363512 -2.405991,-2.014339 -0.148794,-0.170032 -0.400391,-0.407464 -0.452184,-0.649526 -0.185629,-0.867561 0.503397,-1.767258 0.590376,-2.600544 0.549981,-1.437093 1.329433,-2.766669 2.203413,-4.0313883 0,0 -3.429058,-1.977734 -3.429058,-1.977734 z" />
    <path
       style="fill:#800000;stroke-width:0.264583"
       id="path495"
       d="m 76.230775,20.195057 c -1.805811,0.07871 -3.626451,-0.120568 -5.418196,0.137022 -1.889017,0.563571 -3.502292,1.678694 -4.885777,3.05657 -0.866699,1.018538 -1.224201,2.245151 -1.375955,3.544644 -0.194019,1.153938 0.134183,2.13959 0.650303,3.154696 0.104577,0.171193 0.209153,0.342387 0.313727,0.51358 0,0 3.60907,1.587281 3.60907,1.587281 v 0 c -0.108381,-0.161804 -0.216762,-0.323607 -0.325144,-0.48541 -0.557564,-0.986901 -0.914325,-1.780382 -0.747006,-2.940093 0.111961,-1.217075 0.401519,-2.372137 1.217084,-3.325944 1.327184,-1.324285 2.894327,-2.399615 4.740619,-2.842551 1.798568,-0.187704 3.614004,-0.05471 5.419883,-0.07587 0,0 -3.198608,-2.323928 -3.198608,-2.323928 z" />
    <path
       style="fill:#800000;stroke-width:0.264583"
       id="path497"
       d="m 64.241094,34.577942 c -1.455643,0.29796 -2.898378,0.683061 -4.180801,1.451155 -0.966784,0.89794 -1.639014,2.0483 -2.155713,3.25051 -0.417322,0.97993 -0.296964,1.89004 0.165523,2.82 0.253905,0.42213 0.624525,0.72076 1.005226,1.0191 0,0 3.679052,1.44974 3.679052,1.44974 v 0 c -0.393575,-0.24577 -0.763897,-0.50757 -1.073324,-0.85946 -0.518343,-0.78588 -0.696193,-1.5998 -0.335352,-2.49923 0.467651,-1.12972 1.085345,-2.22704 2.018933,-3.03739 1.276252,-0.72696 2.701348,-1.06946 4.134223,-1.34735 0,0 -3.257767,-2.247075 -3.257767,-2.247075 z" />
    <path
       style="fill:#800000;stroke-width:0.264583"
       id="path499"
       d="m 61.953366,47.268777 c -1.843196,-0.0458 -3.286088,0.44624 -4.725765,1.57226 -0.821391,0.76244 -1.34207,1.7771 -1.729642,2.81594 -0.265703,0.82372 -0.292881,1.69199 -0.313854,2.54945 -0.02098,0.95418 -0.04608,1.90197 0.222197,2.82519 0.132731,0.33218 0.361873,0.59128 0.595802,0.85347 0,0 3.67113,1.50731 3.67113,1.50731 v 0 c -0.260627,-0.20249 -0.460631,-0.43451 -0.675478,-0.68513 -0.379402,-0.85197 -0.303715,-1.78337 -0.290653,-2.69645 0.01429,-0.81632 0.02392,-1.64438 0.253762,-2.4347 0.343585,-0.9755 0.814739,-1.93427 1.587833,-2.63988 1.363396,-1.02733 2.859419,-1.46804 4.575622,-1.31499 0,0 -3.170954,-2.35247 -3.170954,-2.35247 z" />
    <path
       style="fill:#800000;stroke-width:0.264583"
       id="path501"
       d="m 58.2196,62.220757 c -0.450887,1.64056 -0.09967,3.22754 0.506603,4.76708 0.826604,1.56371 2.231919,2.70281 3.702704,3.63342 1.81048,1.0197 3.567583,2.25785 5.57091,2.89586 0.679318,0.21635 1.379101,0.3505 2.066063,0.53909 1.844945,0.33907 3.711784,0.53671 5.566251,0.81283 1.76575,0.22281 3.520982,0.41867 5.194779,1.04971 0.200956,0.0798 0.401915,0.15954 0.602871,0.23931 0,0 -3.098501,-2.4297 -3.098501,-2.4297 v 0 c -0.201268,-0.0748 -0.402537,-0.14957 -0.603808,-0.22435 -1.697961,-0.54461 -3.451635,-0.74521 -5.214988,-0.97068 -1.860576,-0.26096 -3.732723,-0.47619 -5.570418,-0.87284 -0.680709,-0.17423 -1.367943,-0.325 -2.031402,-0.56008 -1.278456,-0.45299 -4.088355,-2.03688 1.172173,0.93331 -1.476224,-0.86473 -2.874243,-1.9401 -3.799782,-3.40437 -0.617315,-1.45043 -1.06077,-2.95754 -0.582297,-4.52605 0,0 -3.481158,-1.88254 -3.481158,-1.88254 z" />
    <path
       style="fill:#800000;stroke-width:0.264583"
       id="path503"
       d="m 82.52594,78.106927 c -1.146898,1.56102 -2.046063,3.29204 -2.346992,5.21403 0.05433,1.33804 0.639596,2.61453 1.373836,3.7196 0.590547,0.79102 1.056206,1.66406 1.553643,2.51389 1.365925,1.73654 3.577223,3.2318 5.837624,3.16328 0,0 -3.19056,-2.33216 -3.19056,-2.33216 v 0 c -0.157906,-0.0148 -0.317682,-0.0159 -0.473713,-0.0443 -0.158593,-0.0289 -0.601247,-0.21556 -0.466672,-0.12682 0.960454,0.63336 1.980486,1.17156 2.961751,1.77218 0.121383,0.0743 -0.260937,-0.11625 -0.38106,-0.19257 -0.349578,-0.22211 -0.402276,-0.32923 -0.677667,-0.64308 -0.531749,-0.83473 -0.955321,-1.73725 -1.525807,-2.5493 -0.809146,-0.89861 -1.347317,-2.28196 -1.547119,-3.45553 0.221276,-1.89069 1.101841,-3.51634 2.268611,-4.99992 0,0 -3.385875,-2.03928 -3.385875,-2.03928 z" />
    <text
       xml:space="preserve"
       style="font-weight:bold;font-size:8.1139px;font-family:Calibri;-inkscape-font-specification:'Calibri Bold';text-align:center;text-anchor:middle;fill:#800000;stroke-width:0.264583"
       x="42.269108"
       y="86.762909"
       id="text507"><tspan
         sodipodi:role="line"
         id="tspan505"
         style="stroke-width:0.264583"
         x="42.269108"
         y="86.762909">contraints</tspan></text>
    <text
       xml:space="preserve"
       style="font-weight:bold;font-size:8.1139px;font-family:Calibri;-inkscape-font-specification:'Calibri Bold';text-align:center;text-anchor:middle;fill:#800000;stroke-width:0.264583"
       x="46.273548"
       y="13.793071"
       id="text511"><tspan
         sodipodi:role="line"
         id="tspan509"
         style="stroke-width:0.264583"
         x="46.273548"
         y="13.793071">not</tspan></text>
    <text
       xml:space="preserve"
       style="font-weight:bold;font-size:8.1139px;font-family:Calibri;-inkscape-font-specification:'Calibri Bold';text-align:center;text-anchor:middle;fill:#800000;stroke-width:0.264583"
       x="43.158981"
       y="97.886353"
       id="text515"><tspan
         sodipodi:role="line"
         id="tspan513"
         style="stroke-width:0.264583"
         x="43.158981"
         y="97.886353">modifiers</tspan></text>
    <text
       xml:space="preserve"
       style="font-weight:bold;font-size:8.1139px;font-family:Calibri;-inkscape-font-specification:'Calibri Bold';text-align:center;text-anchor:middle;fill:#800000;stroke-width:0.264583"
       x="189.09863"
       y="148.60927"
       id="text519"><tspan
         sodipodi:role="line"
         id="tspan517"
         style="stroke-width:0.264583"
         x="189.09863"
         y="148.60927">coefficents</tspan></text>
    <text
       xml:space="preserve"
       style="font-weight:bold;font-size:8.1139px;font-family:Calibri;-inkscape-font-specification:'Calibri Bold';text-align:center;text-anchor:middle;fill:#800000;stroke-width:0.264583"
       x="193.548"
       y="134.81619"
       id="text523"><tspan
         sodipodi:role="line"
         id="tspan521"
         style="stroke-width:0.264583"
         x="193.548"
         y="134.81619">edges</tspan></text>
    <text
       xml:space="preserve"
       style="font-weight:bold;font-size:8.1139px;font-family:Calibri;-inkscape-font-specification:'Calibri Bold';text-align:center;text-anchor:middle;fill:#800000;stroke-width:0.264583"
       x="139.26558"
       y="135.70607"
       id="text527"><tspan
         sodipodi:role="line"
         id="tspan525"
         style="stroke-width:0.264583"
         x="139.26558"
         y="135.70607">graph</tspan></text>
    <text
       xml:space="preserve"
       style="font-weight:bold;font-size:8.1139px;font-family:Calibri;-inkscape-font-specification:'Calibri Bold';text-align:center;text-anchor:middle;fill:#800000;stroke-width:0.264583"
       x="169.52136"
       y="135.26112"
       id="text531"><tspan
         sodipodi:role="line"
         id="tspan529"
         style="stroke-width:0.264583"
         x="169.52136"
         y="135.26112">node</tspan></text>
    <path
       style="fill:#800000;stroke-width:0.264583"
       id="path533"
       d="m 60.810115,13.620225 c 1.85049,-0.02109 3.701182,-0.01675 5.551752,-0.0113 1.25975,-0.03024 2.526585,0.08595 3.780041,-0.05955 0.914643,-0.108117 0.446966,-0.0369 1.402199,-0.219057 0,0 -3.217606,-2.253538 -3.217606,-2.253538 v 0 c -0.947571,0.151059 -0.482536,0.09095 -1.394635,0.183925 -1.243851,0.07778 -2.49184,0.02318 -3.737496,0.0469 -1.860941,0.0055 -3.722002,0.0096 -5.582864,-0.0113 0,0 3.198609,2.323925 3.198609,2.323925 z" />
    <path
       style="fill:#800000;stroke-width:0.264583"
       id="path535"
       d="m 32.754532,11.05133 c -2.886394,2.304507 -5.839527,4.568698 -8.312988,7.332659 -1.988797,2.222376 -3.314441,4.13816 -5.101132,6.550496 -4.364263,6.369482 -8.104976,13.138212 -11.5552369,20.037352 -1.164901,2.39625 -2.375161,4.80433 -3.062275,7.39233 -0.399972,1.50649 -0.446202,2.11706 -0.677111,3.665 -0.359995,3.21244 -0.512795,6.45324 -0.415554,9.68454 0.231568,2.79291 1.141371,4.70635 2.718073,6.95134 1.415264,2.06861 3.33376,3.74059 5.2456039,5.33875 1.333753,1.16637 2.692289,2.29378 4.128791,3.33039 2.547406,1.82345 5.394439,3.1599 8.341753,4.17628 0.257893,0.0754 0.515786,0.15075 0.77368,0.22612 0,0 -3.104865,-2.39764 -3.104865,-2.39764 v 0 c -0.251636,-0.0781 -0.503271,-0.15617 -0.754907,-0.23424 -0.918863,-0.32979 -1.820033,-0.6849 -2.712496,-1.08166 -0.299615,-0.13321 -1.165966,-0.59322 -0.894388,-0.40949 0.641808,0.43421 3.902563,2.39149 2.010078,1.16775 -1.449823,-1.04461 -2.86379,-2.12298 -4.188738,-3.32696 -1.918984,-1.56212 -3.846124,-3.21397 -5.2812799,-5.24358 -1.591446,-2.19808 -2.554559,-3.97964 -2.830694,-6.75409 -0.128734,-3.21569 -3.17e-4,-6.44433 0.341206,-9.64415 0.224798,-1.52592 0.269986,-2.12485 0.656732,-3.61045 0.670269,-2.57468 1.848431,-4.97895 2.9504799,-7.38685 3.319021,-6.9403 6.981466,-13.735941 11.386977,-20.055614 1.991071,-2.627519 2.973973,-4.062627 5.167509,-6.450928 2.509604,-2.732437 5.440973,-5.037743 8.471692,-7.158797 0,0 -3.30091,-2.098558 -3.30091,-2.098558 z" />
    <path
       style="fill:#800000;stroke-width:0.264583"
       id="path537"
       d="m 26.750374,99.951287 c -1.331887,-1.50294 -2.67637,-2.97804 -3.650419,-4.74351 -0.615713,-1.15578 -0.80331,-2.42362 -0.879866,-3.71109 -0.04949,-0.90542 -0.109975,-1.76933 0.330942,-2.58266 0.249672,-0.33078 0.518564,-0.60518 0.849381,-0.85145 0,0 -3.349932,-2.10669 -3.349932,-2.10669 v 0 c -0.354537,0.29523 -0.666169,0.60568 -0.932148,0.98677 -0.509339,0.92368 -0.48831,1.74664 -0.424114,2.78189 0.06803,1.33655 0.223709,2.66535 0.834223,3.87965 0.940433,1.80348 2.264067,3.29135 3.592556,4.81871 0,0 3.629377,1.52838 3.629377,1.52838 z" />
    <path
       style="fill:#800000;stroke-width:0.264583"
       id="path539"
       d="m 140.08818,121.84245 c -0.34111,1.41623 -0.549,2.85515 -0.68716,4.30365 -0.0678,0.75699 -0.0935,1.51656 -0.11233,2.27602 0,0 3.51646,1.8006 3.51646,1.8006 v 0 c 0.0114,-0.75371 0.0277,-1.50765 0.0847,-2.25958 0.11917,-1.42802 0.30312,-2.85199 0.67947,-4.23815 0,0 -3.48116,-1.88254 -3.48116,-1.88254 z" />
    <path
       style="fill:#800000;stroke-width:0.264583"
       id="path541"
       d="m 172.08435,122.20566 c -0.51822,1.2331 -1.27562,2.33967 -1.89894,3.51704 -0.5492,0.91249 -0.8212,1.94051 -1.26439,2.90189 0,0 3.42793,1.94121 3.42793,1.94121 v 0 c 0.45766,-0.95152 0.73092,-1.96776 1.26138,-2.88511 0.61378,-1.19354 1.35556,-2.31866 1.92746,-3.53548 0,0 -3.45344,-1.93955 -3.45344,-1.93955 z" />
    <path
       style="fill:#800000;stroke-width:0.264583"
       id="path543"
       d="m 179.98762,125.37411 c 1.3212,0.1122 2.61465,0.43136 3.83168,0.95455 1.54085,1.00396 -0.47534,-0.32291 -2.5401,-1.3921 -0.13663,-0.0708 0.23335,0.20114 0.34114,0.31094 0.003,0.003 0.6201,0.70354 0.62608,0.71033 0,0 3.6472,1.52954 3.6472,1.52954 v 0 c -0.25919,-0.27223 -0.65623,-0.90576 -0.94254,-1.09064 -2.72455,-1.75924 -2.60138,-1.68265 -4.23263,-2.50595 -1.25907,-0.46421 -2.56795,-0.74939 -3.90416,-0.88307 0,0 3.17333,2.3664 3.17333,2.3664 z" />
    <text
       xml:space="preserve"
       style="font-weight:bold;font-size:8.1139px;font-family:Calibri;-inkscape-font-specification:'Calibri Bold';text-align:center;text-anchor:middle;fill:#800000;stroke-width:0.264583"
       x="129.032"
       y="146.82951"
       id="text665"><tspan
         sodipodi:role="line"
         id="tspan663"
         style="stroke-width:0.264583"
         x="129.032"
         y="146.82951">polynomial</tspan></text>
    <text
       xml:space="preserve"
       style="font-weight:bold;font-size:8.1139px;font-family:Calibri;-inkscape-font-specification:'Calibri Bold';text-align:center;text-anchor:middle;fill:#800000;stroke-width:0.264583"
       x="173.08086"
       y="162.40236"
       id="text669"><tspan
         sodipodi:role="line"
         id="tspan667"
         style="stroke-width:0.264583"
         x="173.08086"
         y="162.40236">symmetry</tspan></text>
    <text
       xml:space="preserve"
       style="font-weight:bold;font-size:8.1139px;font-family:Calibri;-inkscape-font-specification:'Calibri Bold';text-align:center;text-anchor:middle;fill:#800000;stroke-width:0.264583"
       x="157.0631"
       y="173.52579"
       id="text673"><tspan
         sodipodi:role="line"
         id="tspan671"
         style="stroke-width:0.264583"
         x="157.0631"
         y="173.52579">moonshine</tspan></text>
    <text
       xml:space="preserve"
       style="font-weight:bold;font-size:8.1139px;font-family:Calibri;-inkscape-font-specification:'Calibri Bold';text-align:center;text-anchor:middle;fill:#800000;stroke-width:0.264583"
       x="151.2789"
       y="183.31444"
       id="text677"><tspan
         sodipodi:role="line"
         id="tspan675"
         style="stroke-width:0.264583"
         x="151.2789"
         y="183.31444">elliptic curves</tspan></text>
    <text
       xml:space="preserve"
       style="font-weight:bold;font-size:8.1139px;font-family:Calibri;-inkscape-font-specification:'Calibri Bold';text-align:center;text-anchor:middle;fill:#800000;stroke-width:0.264583"
       x="92.102158"
       y="147.27444"
       id="text681"><tspan
         sodipodi:role="line"
         id="tspan679"
         style="stroke-width:0.264583"
         x="92.102158"
         y="147.27444">algebra</tspan></text>
    <text
       xml:space="preserve"
       style="font-weight:bold;font-size:8.1139px;font-family:Calibri;-inkscape-font-specification:'Calibri Bold';text-align:center;text-anchor:middle;fill:#800000;stroke-width:0.264583"
       x="133.92632"
       y="161.95741"
       id="text685"><tspan
         sodipodi:role="line"
         id="tspan683"
         style="stroke-width:0.264583"
         x="133.92632"
         y="161.95741">group</tspan></text>
    <text
       xml:space="preserve"
       style="font-weight:bold;font-size:8.1139px;font-family:Calibri;-inkscape-font-specification:'Calibri Bold';text-align:center;text-anchor:middle;fill:#800000;stroke-width:0.264583"
       x="152.16878"
       y="228.25317"
       id="text689"><tspan
         sodipodi:role="line"
         id="tspan687"
         style="stroke-width:0.264583"
         x="152.16878"
         y="228.25317">solutions</tspan></text>
    <text
       xml:space="preserve"
       style="font-weight:bold;font-size:8.1139px;font-family:Calibri;-inkscape-font-specification:'Calibri Bold';text-align:center;text-anchor:middle;fill:#800000;stroke-width:0.264583"
       x="151.2789"
       y="197.10751"
       id="text693"><tspan
         sodipodi:role="line"
         id="tspan691"
         style="stroke-width:0.264583"
         x="151.2789"
         y="197.10751">weight</tspan></text>
    <text
       xml:space="preserve"
       style="font-weight:bold;font-size:8.1139px;font-family:Calibri;-inkscape-font-specification:'Calibri Bold';text-align:center;text-anchor:middle;fill:#800000;stroke-width:0.264583"
       x="147.27446"
       y="209.12085"
       id="text697"><tspan
         sodipodi:role="line"
         id="tspan695"
         style="stroke-width:0.264583"
         x="147.27446"
         y="209.12085">level</tspan></text>
    <text
       xml:space="preserve"
       style="font-weight:bold;font-size:8.1139px;font-family:Calibri;-inkscape-font-specification:'Calibri Bold';text-align:center;text-anchor:middle;fill:#800000;stroke-width:0.264583"
       x="154.83841"
       y="219.3544"
       id="text701"><tspan
         sodipodi:role="line"
         id="tspan699"
         style="stroke-width:0.264583"
         x="154.83841"
         y="219.3544">conductor</tspan></text>
    <path
       style="fill:#800000;stroke-width:0.264583"
       id="path781"
       d="m 137.05873,136.02713 c 0.0344,0.46366 0.0228,0.92917 0.0309,1.39372 0.0312,0.49608 -0.0858,0.97903 -0.16198,1.4648 -0.0494,0.34078 -0.0593,0.68525 -0.0671,1.02894 0,0 3.48116,1.78295 3.48116,1.78295 v 0 c 0.006,-0.32954 0.0141,-0.6595 0.0495,-0.98748 0.0588,-0.50764 0.15804,-1.01378 0.16046,-1.52518 0.008,-0.45405 -0.004,-0.90918 0.0309,-1.36228 0,0 -3.52382,-1.79547 -3.52382,-1.79547 z" />
    <path
       style="fill:#800000;stroke-width:0.264583"
       id="path783"
       d="m 135.95643,147.20892 c 0.0802,0.90485 0.0876,1.8216 0.0349,2.72853 -0.0727,0.66951 -0.16013,1.33585 -0.2026,2.00814 -0.0259,0.42766 -0.0349,0.85602 -0.0406,1.28433 0,0 3.47352,1.7723 3.47352,1.7723 v 0 c -0.001,-0.42635 -0.002,-0.85282 0.0113,-1.27902 0.028,-0.68066 0.0882,-1.35924 0.13906,-2.03846 0.052,-0.89665 -0.0151,-1.797 0.0882,-2.69059 0,0 -3.50373,-1.78523 -3.50373,-1.78523 z" />
    <path
       style="fill:#800000;stroke-width:0.264583"
       id="path785"
       d="m 137.50367,163.39081 c 0.1053,0.6572 0.32995,1.29365 0.53494,1.92597 0.14075,0.46694 0.3132,0.9133 0.56324,1.33169 0,0 3.59882,1.54112 3.59882,1.54112 v 0 c -0.34738,-0.33554 -0.54946,-0.78531 -0.69321,-1.24135 -0.19161,-0.58048 -0.37689,-1.15871 -0.47997,-1.76196 0,0 -3.52382,-1.79547 -3.52382,-1.79547 z" />
    <text
       xml:space="preserve"
       style="font-weight:bold;font-size:8.1139px;font-family:Calibri;-inkscape-font-specification:'Calibri Bold';text-align:center;text-anchor:middle;fill:#800000;stroke-width:0.264583"
       x="106.34016"
       y="196.21764"
       id="text789"><tspan
         sodipodi:role="line"
         id="tspan787"
         style="stroke-width:0.264583"
         x="106.34016"
         y="196.21764">LMFDB</tspan></text>
    <text
       xml:space="preserve"
       style="font-weight:bold;font-size:8.1139px;font-family:Calibri;-inkscape-font-specification:'Calibri Bold';text-align:center;text-anchor:middle;fill:#800000;stroke-width:0.264583"
       x="44.493793"
       y="181.97961"
       id="text793"><tspan
         sodipodi:role="line"
         id="tspan791"
         style="stroke-width:0.264583"
         x="44.493793"
         y="181.97961">MATH</tspan></text>
    <text
       xml:space="preserve"
       style="font-weight:bold;font-size:8.1139px;font-family:Calibri;-inkscape-font-specification:'Calibri Bold';text-align:center;text-anchor:middle;fill:#800000;stroke-width:0.264583"
       x="127.6972"
       y="12.458262"
       id="text797"><tspan
         sodipodi:role="line"
         id="tspan795"
         style="stroke-width:0.264583"
         x="127.6972"
         y="12.458262">Imagination</tspan></text>
    <text
       xml:space="preserve"
       style="font-weight:bold;font-size:8.1139px;font-family:Calibri;-inkscape-font-specification:'Calibri Bold';text-align:center;text-anchor:middle;fill:#800000;stroke-width:0.264583"
       x="49.388119"
       y="172.63594"
       id="text801"><tspan
         sodipodi:role="line"
         id="tspan799"
         style="stroke-width:0.264583"
         x="49.388119"
         y="172.63594">Real</tspan></text>
    <text
       xml:space="preserve"
       style="font-weight:bold;font-size:8.1139px;font-family:Calibri;-inkscape-font-specification:'Calibri Bold';text-align:center;text-anchor:middle;fill:#800000;stroke-width:0.264583"
       x="57.841923"
       y="163.73717"
       id="text805"><tspan
         sodipodi:role="line"
         id="tspan803"
         style="stroke-width:0.264583"
         x="57.841923"
         y="163.73717">Imaginary</tspan></text>
    <text
       xml:space="preserve"
       style="font-weight:bold;font-size:8.1139px;font-family:Calibri;-inkscape-font-specification:'Calibri Bold';text-align:center;text-anchor:middle;fill:#800000;stroke-width:0.264583"
       x="24.471586"
       y="169.07642"
       id="text809"><tspan
         sodipodi:role="line"
         id="tspan807"
         style="stroke-width:0.264583"
         x="24.471586"
         y="169.07642">Complex</tspan></text>
    <text
       xml:space="preserve"
       style="font-weight:bold;font-size:8.1139px;font-family:Calibri;-inkscape-font-specification:'Calibri Bold';text-align:center;text-anchor:middle;fill:#800000;stroke-width:0.264583"
       x="89.432526"
       y="104.11548"
       id="text906"><tspan
         sodipodi:role="line"
         id="tspan904"
         style="stroke-width:0.264583"
         x="89.432526"
         y="104.11548">xmi</tspan></text>
    <text
       xml:space="preserve"
       style="font-weight:bold;font-size:8.1139px;font-family:Calibri;-inkscape-font-specification:'Calibri Bold';text-align:center;text-anchor:middle;fill:#800000;stroke-width:0.264583"
       x="82.980934"
       y="113.90411"
       id="text910"><tspan
         sodipodi:role="line"
         id="tspan908"
         style="stroke-width:0.264583"
         x="82.980934"
         y="113.90411">mof</tspan></text>
    <text
       xml:space="preserve"
       style="font-weight:bold;font-size:8.1139px;font-family:Calibri;-inkscape-font-specification:'Calibri Bold';text-align:center;text-anchor:middle;fill:#800000;stroke-width:0.264583"
       x="62.736248"
       y="103.2256"
       id="text914"><tspan
         sodipodi:role="line"
         id="tspan912"
         style="stroke-width:0.264583"
         x="62.736248"
         y="103.2256">omg</tspan></text>
    <text
       xml:space="preserve"
       style="font-weight:bold;font-size:8.1139px;font-family:Calibri;-inkscape-font-specification:'Calibri Bold';text-align:center;text-anchor:middle;fill:#800000;stroke-width:0.264583"
       x="58.0644"
       y="110.78954"
       id="text918"><tspan
         sodipodi:role="line"
         id="tspan916"
         style="stroke-width:0.264583"
         x="58.0644"
         y="110.78954">java</tspan></text>
    <path
       style="fill:#800000;stroke-width:0.264583"
       id="path920"
       d="m 101.26866,92.743241 c 0.34271,0.71432 0.52316,1.497301 0.69454,2.267503 0.19381,0.818457 0.17324,1.637787 0.0349,2.460366 -0.11962,0.412488 -0.20643,0.847489 -0.38058,1.242581 -0.0823,0.186701 -0.22582,0.362754 -0.34227,0.52429 -0.56582,0.59105 -1.276085,0.982539 -1.998913,1.343589 -0.465937,0.21524 -0.969701,0.3278 -1.465411,0.45261 0,0 3.194214,2.19525 3.194214,2.19525 v 0 c 0.50784,-0.14447 1.02323,-0.27269 1.48486,-0.53953 0.75473,-0.40319 1.46461,-0.88035 2.07323,-1.48779 0.0955,-0.11056 0.20215,-0.21233 0.28637,-0.33167 0.31371,-0.44457 0.38061,-1.097693 0.53672,-1.606487 0.12384,-0.860446 0.21394,-1.734204 0.0123,-2.591247 -0.151,-0.766429 -0.36055,-1.519621 -0.55457,-2.275896 0,0 -3.57539,-1.653569 -3.57539,-1.653569 z" />
    <path
       style="fill:#800000;stroke-width:0.264583"
       id="path922"
       d="m 95.684524,104.24323 c 0.14397,1.05297 0.01307,2.10826 -0.275124,3.12326 -0.424678,1.06047 -1.219806,1.88778 -2.052606,2.64178 -0.530757,0.40311 -1.080759,0.78124 -1.635374,1.15037 -0.326294,0.19085 -0.693647,0.27768 -1.058185,0.36068 0,0 3.178408,2.19097 3.178408,2.19097 v 0 c 0.402055,-0.11157 0.822222,-0.21397 1.165913,-0.46151 0.534408,-0.40432 1.080675,-0.7966 1.568923,-1.2571 0.830472,-0.83439 1.67358,-1.72416 2.139882,-2.81921 0.05497,-0.18092 0.121345,-0.35877 0.164922,-0.54276 0.201404,-0.8504 0.161872,-1.73837 0.317013,-2.59612 0,0 -3.513772,-1.79036 -3.513772,-1.79036 z" />
    <path
       style="fill:#800000;stroke-width:0.264583"
       id="path924"
       d="m 70.448259,101.80341 c 0.620948,1.24243 1.053952,2.5596 1.686605,3.7977 0.331957,0.65695 0.822912,1.21317 1.421133,1.6372 11.767894,6.79076 -7.757123,-4.47136 3.947295,2.28615 0,0 -3.040436,-2.45608 -3.040436,-2.45608 v 0 c 10.552718,6.11254 -7.699264,-4.46216 2.70787,1.58107 -0.636378,-0.38539 -1.214596,-0.8477 -1.590585,-1.50643 -0.132567,-0.22393 -0.488273,-0.81817 -0.595503,-1.0292 -0.436658,-0.85936 -0.747363,-1.78827 -1.00689,-2.71355 0,0 -3.529489,-1.59686 -3.529489,-1.59686 z" />
    <path
       style="fill:#800000;stroke-width:0.264583"
       id="path926"
       d="m 68.727869,109.51752 c 0.304962,-0.40605 0.545714,-0.8555 0.847024,-1.26314 0.284083,-0.3489 0.463357,-0.74714 0.582473,-1.17674 0,0 -3.433665,-1.85711 -3.433665,-1.85711 v 0 c -0.08555,0.38901 -0.233527,0.74518 -0.483796,1.06055 -0.285684,0.39596 -0.533109,0.82618 -0.881785,1.17145 0,0 3.369749,2.06499 3.369749,2.06499 z" />
    <path
       style="fill:#800000;stroke-width:0.264583"
       id="path928"
       d="m 76.207352,101.8778 c 1.535768,-0.0743 3.074326,-0.028 4.610547,0.01 0.600414,0.0198 1.201087,0.024 1.801738,0.0304 0,0 -3.136669,-2.278924 -3.136669,-2.278924 v 0 c -0.572792,0.0062 -1.145617,0.01008 -1.718146,0.03037 -1.527324,0.04019 -3.056697,0.08212 -4.583724,0.0097 0,0 3.026254,2.198704 3.026254,2.198704 z" />
    <path
       style="fill:#800000;stroke-width:0.264583"
       id="path930"
       d="m 76.274133,99.568017 c 1.269156,-0.727715 2.634697,-1.248404 4.005254,-1.747583 1.38629,-0.517274 2.843083,-0.807313 4.24161,-1.281047 0.967142,-0.296682 1.900732,-0.679296 2.87442,-0.95569 0.970761,-0.308841 1.935477,-0.624991 2.934507,-0.829784 0.659931,-0.109403 1.30507,-0.281136 1.970786,-0.356277 0.444576,-0.103646 0.867293,-0.267722 1.253233,-0.510715 0,0 -3.266183,-2.118611 -3.266183,-2.118611 v 0 c -0.36584,0.19531 -0.756256,0.329091 -1.168509,0.387651 -0.643728,0.115335 -1.270849,0.301279 -1.910807,0.434957 -0.987216,0.246724 -1.956838,0.541007 -2.919146,0.871675 -0.974955,0.309097 -1.955493,0.601406 -2.917928,0.948359 -1.333357,0.494102 -2.684571,0.939353 -4.017732,1.434349 -1.473473,0.522811 -2.952104,1.035298 -4.41389,1.587748 0,0 3.334385,2.134968 3.334385,2.134968 z" />
    <text
       xml:space="preserve"
       style="font-weight:bold;font-size:8.1139px;font-family:Calibri;-inkscape-font-specification:'Calibri Bold';text-align:center;text-anchor:middle;fill:#800000;stroke-width:0.264583"
       x="141.71274"
       y="48.275768"
       id="text1041"><tspan
         sodipodi:role="line"
         id="tspan1039"
         style="stroke-width:0.264583"
         x="141.71274"
         y="48.275768">inheritance</tspan></text>
    <text
       xml:space="preserve"
       style="font-weight:bold;font-size:8.1139px;font-family:Calibri;-inkscape-font-specification:'Calibri Bold';text-align:center;text-anchor:middle;fill:#800000;stroke-width:0.264583"
       x="140.60039"
       y="55.617245"
       id="text1045"><tspan
         sodipodi:role="line"
         id="tspan1043"
         style="stroke-width:0.264583"
         x="140.60039"
         y="55.617245">associations</tspan></text>
    <text
       xml:space="preserve"
       style="font-weight:bold;font-size:8.1139px;font-family:Calibri;-inkscape-font-specification:'Calibri Bold';text-align:center;text-anchor:middle;fill:#800000;stroke-width:0.264583"
       x="134.81619"
       y="63.626129"
       id="text1049"><tspan
         sodipodi:role="line"
         id="tspan1047"
         style="stroke-width:0.264583"
         x="134.81619"
         y="63.626129">attributes</tspan></text>
    <text
       xml:space="preserve"
       style="font-weight:bold;font-size:8.1139px;font-family:Calibri;-inkscape-font-specification:'Calibri Bold';text-align:center;text-anchor:middle;fill:#800000;stroke-width:0.264583"
       x="148.38681"
       y="82.758453"
       id="text1053"><tspan
         sodipodi:role="line"
         id="tspan1051"
         style="stroke-width:0.264583"
         x="148.38681"
         y="82.758453">sequence</tspan></text>
    <text
       xml:space="preserve"
       style="font-weight:bold;font-size:8.1139px;font-family:Calibri;-inkscape-font-specification:'Calibri Bold';text-align:center;text-anchor:middle;fill:#800000;stroke-width:0.264583"
       x="133.48138"
       y="89.21006"
       id="text1057"><tspan
         sodipodi:role="line"
         id="tspan1055"
         style="stroke-width:0.264583"
         x="133.48138"
         y="89.21006">activity</tspan></text>
    <text
       xml:space="preserve"
       style="font-weight:bold;font-size:8.1139px;font-family:Calibri;-inkscape-font-specification:'Calibri Bold';text-align:center;text-anchor:middle;fill:#800000;stroke-width:0.264583"
       x="138.3757"
       y="72.969826"
       id="text1061"><tspan
         sodipodi:role="line"
         id="tspan1059"
         style="stroke-width:0.264583"
         x="138.3757"
         y="72.969826">deployment</tspan></text>
    <text
       xml:space="preserve"
       style="font-weight:bold;font-size:8.1139px;font-family:Calibri;-inkscape-font-specification:'Calibri Bold';text-align:center;text-anchor:middle;fill:#800000;stroke-width:0.264583"
       x="170.6877"
       y="66.248322"
       id="text1065"><tspan
         sodipodi:role="line"
         id="tspan1063"
         style="stroke-width:0.264583"
         x="170.6877"
         y="66.248322">use case</tspan></text>
  </g>
</svg>
